<svg width="674" height="113" viewBox="0 0 674 113" fill="none" xmlns="http://www.w3.org/2000/svg">
<path d="M39.7207 29.8848V41.1104H11.3076V29.8848H39.7207ZM15.0674 29.8848V88H0.833984V29.8848H15.0674ZM50.4629 29.8848V88H36.1758V29.8848H50.4629ZM77.5332 41.0566V110.344H63.2998V29.8848H76.459L77.5332 41.0566ZM114.862 58.3516V59.4795C114.862 63.7048 114.361 67.6257 113.358 71.2422C112.392 74.8229 110.959 77.9561 109.062 80.6416C107.164 83.2913 104.8 85.3682 101.972 86.8721C99.1787 88.3402 95.9561 89.0742 92.3037 89.0742C88.723 89.0742 85.6077 88.3939 82.958 87.0332C80.3083 85.6367 78.0703 83.6673 76.2441 81.125C74.418 78.5827 72.9499 75.6286 71.8398 72.2627C70.7656 68.861 69.96 65.1549 69.4229 61.1445V57.5459C69.96 53.2848 70.7656 49.4176 71.8398 45.9443C72.9499 42.4352 74.418 39.4095 76.2441 36.8672C78.0703 34.2891 80.2904 32.3018 82.9043 30.9053C85.554 29.5088 88.6514 28.8105 92.1963 28.8105C95.8844 28.8105 99.125 29.5088 101.918 30.9053C104.747 32.3018 107.128 34.307 109.062 36.9209C110.995 39.5348 112.445 42.6501 113.412 46.2666C114.379 49.8831 114.862 53.9115 114.862 58.3516ZM100.629 59.4795V58.3516C100.629 55.7734 100.396 53.3923 99.9307 51.208C99.4652 48.988 98.749 47.0544 97.7822 45.4072C96.8154 43.7243 95.5622 42.4173 94.0225 41.4863C92.4827 40.5553 90.6208 40.0898 88.4365 40.0898C86.2523 40.0898 84.3724 40.4479 82.7969 41.1641C81.2214 41.8802 79.9323 42.9007 78.9297 44.2256C77.9271 45.5505 77.1393 47.126 76.5664 48.9521C76.0293 50.7425 75.6712 52.7298 75.4922 54.9141V63.8301C75.8145 66.4798 76.4411 68.861 77.3721 70.9736C78.3031 73.0863 79.6637 74.7692 81.4541 76.0225C83.2803 77.2757 85.6436 77.9023 88.5439 77.9023C90.7282 77.9023 92.5902 77.4189 94.1299 76.4521C95.6696 75.4854 96.9229 74.1605 97.8896 72.4775C98.8564 70.7588 99.5547 68.7894 99.9844 66.5693C100.414 64.3493 100.629 61.986 100.629 59.4795ZM157.24 75.6465V48.8447C157.24 46.8753 156.9 45.1745 156.22 43.7422C155.539 42.3099 154.501 41.1999 153.104 40.4121C151.708 39.6243 149.936 39.2305 147.787 39.2305C145.889 39.2305 144.224 39.5527 142.792 40.1973C141.396 40.8418 140.321 41.7549 139.569 42.9365C138.817 44.0824 138.441 45.4072 138.441 46.9111H124.208C124.208 44.512 124.781 42.2383 125.927 40.0898C127.073 37.9056 128.702 35.972 130.814 34.2891C132.963 32.5703 135.523 31.2275 138.495 30.2607C141.503 29.2939 144.869 28.8105 148.593 28.8105C152.997 28.8105 156.918 29.5625 160.355 31.0664C163.829 32.5345 166.55 34.7546 168.52 37.7266C170.525 40.6986 171.527 44.4404 171.527 48.9521V74.3037C171.527 77.2041 171.706 79.6927 172.064 81.7695C172.458 83.8105 173.031 85.583 173.783 87.0869V88H159.335C158.655 86.5319 158.135 84.6699 157.777 82.4141C157.419 80.1224 157.24 77.8665 157.24 75.6465ZM159.228 52.6045L159.335 61.0371H150.365C148.145 61.0371 146.194 61.2699 144.511 61.7354C142.828 62.165 141.449 62.8096 140.375 63.6689C139.301 64.4925 138.495 65.4951 137.958 66.6768C137.421 67.8226 137.152 69.1296 137.152 70.5977C137.152 72.0299 137.475 73.319 138.119 74.4648C138.799 75.6107 139.766 76.5238 141.02 77.2041C142.309 77.8486 143.812 78.1709 145.531 78.1709C148.038 78.1709 150.222 77.6696 152.084 76.667C153.946 75.6286 155.396 74.3753 156.435 72.9072C157.473 71.4391 158.028 70.0426 158.1 68.7178L162.182 74.8408C161.68 76.3089 160.928 77.8665 159.926 79.5137C158.923 81.1608 157.634 82.7005 156.059 84.1328C154.483 85.5651 152.585 86.7467 150.365 87.6777C148.145 88.6087 145.567 89.0742 142.631 89.0742C138.871 89.0742 135.505 88.3223 132.533 86.8184C129.561 85.3145 127.216 83.2555 125.497 80.6416C123.778 78.0277 122.919 75.0557 122.919 71.7256C122.919 68.6462 123.492 65.9248 124.638 63.5615C125.784 61.1982 127.484 59.2109 129.74 57.5996C131.996 55.9525 134.789 54.7171 138.119 53.8936C141.485 53.0342 145.334 52.6045 149.667 52.6045H159.228ZM212.885 63.4004H194.462L194.354 53.7861H209.501C211.757 53.7861 213.601 53.5534 215.033 53.0879C216.465 52.6224 217.522 51.9242 218.202 50.9932C218.918 50.0622 219.276 48.9342 219.276 47.6094C219.276 46.4635 219.062 45.4788 218.632 44.6553C218.202 43.7959 217.558 43.0977 216.698 42.5605C215.875 42.0234 214.818 41.6296 213.529 41.3789C212.276 41.0924 210.808 40.9492 209.125 40.9492H199.511V88H185.277V29.8848H209.125C212.885 29.8848 216.269 30.2249 219.276 30.9053C222.284 31.5498 224.844 32.5345 226.957 33.8594C229.07 35.1842 230.681 36.8672 231.791 38.9082C232.937 40.9134 233.51 43.2767 233.51 45.998C233.51 47.7884 233.116 49.4714 232.328 51.0469C231.54 52.6224 230.377 54.0189 228.837 55.2363C227.297 56.4538 225.399 57.4564 223.144 58.2441C220.888 58.9961 218.31 59.4616 215.409 59.6406L212.885 63.4004ZM212.885 88H190.648L195.912 76.9355H212.885C214.962 76.9355 216.68 76.6849 218.041 76.1836C219.402 75.6465 220.404 74.8766 221.049 73.874C221.729 72.8714 222.069 71.654 222.069 70.2217C222.069 68.8252 221.747 67.6257 221.103 66.623C220.494 65.5846 219.509 64.7969 218.148 64.2598C216.824 63.6868 215.069 63.4004 212.885 63.4004H198.222L198.329 53.7861H215.355L219.115 57.5996C222.982 57.8503 226.187 58.638 228.729 59.9629C231.272 61.252 233.17 62.8991 234.423 64.9043C235.676 66.8737 236.303 69.04 236.303 71.4033C236.303 74.1605 235.784 76.5775 234.745 78.6543C233.707 80.7311 232.185 82.4678 230.18 83.8643C228.174 85.2249 225.722 86.2633 222.821 86.9795C219.921 87.6598 216.609 88 212.885 88ZM244.091 59.5332V58.4053C244.091 54.1442 244.7 50.2233 245.917 46.6426C247.134 43.026 248.907 39.8929 251.234 37.2432C253.562 34.5934 256.409 32.5345 259.774 31.0664C263.14 29.5625 266.972 28.8105 271.269 28.8105C275.637 28.8105 279.504 29.5625 282.87 31.0664C286.272 32.5345 289.136 34.5934 291.464 37.2432C293.791 39.8929 295.564 43.026 296.781 46.6426C297.999 50.2233 298.607 54.1442 298.607 58.4053V59.5332C298.607 63.7585 297.999 67.6794 296.781 71.2959C295.564 74.8766 293.791 78.0098 291.464 80.6953C289.136 83.3451 286.29 85.404 282.924 86.8721C279.558 88.3402 275.709 89.0742 271.376 89.0742C267.079 89.0742 263.23 88.3402 259.828 86.8721C256.426 85.404 253.562 83.3451 251.234 80.6953C248.907 78.0098 247.134 74.8766 245.917 71.2959C244.7 67.6794 244.091 63.7585 244.091 59.5332ZM258.271 58.4053V59.5332C258.271 62.0755 258.521 64.4567 259.022 66.6768C259.524 68.8968 260.294 70.8483 261.332 72.5312C262.37 74.2142 263.713 75.5391 265.36 76.5059C267.043 77.4368 269.049 77.9023 271.376 77.9023C273.668 77.9023 275.637 77.4368 277.284 76.5059C278.931 75.5391 280.274 74.2142 281.312 72.5312C282.387 70.8483 283.174 68.8968 283.676 66.6768C284.177 64.4567 284.428 62.0755 284.428 59.5332V58.4053C284.428 55.8988 284.177 53.5534 283.676 51.3691C283.174 49.1491 282.387 47.1976 281.312 45.5146C280.274 43.7959 278.913 42.4531 277.23 41.4863C275.583 40.4837 273.596 39.9824 271.269 39.9824C268.977 39.9824 267.007 40.4837 265.36 41.4863C263.713 42.4531 262.37 43.7959 261.332 45.5146C260.294 47.1976 259.524 49.1491 259.022 51.3691C258.521 53.5534 258.271 55.8988 258.271 58.4053ZM366.842 41.0566V110.344H352.608V29.8848H365.768L366.842 41.0566ZM404.171 58.3516V59.4795C404.171 63.7048 403.67 67.6257 402.667 71.2422C401.7 74.8229 400.268 77.9561 398.37 80.6416C396.472 83.2913 394.109 85.3682 391.28 86.8721C388.487 88.3402 385.265 89.0742 381.612 89.0742C378.032 89.0742 374.916 88.3939 372.267 87.0332C369.617 85.6367 367.379 83.6673 365.553 81.125C363.727 78.5827 362.258 75.6286 361.148 72.2627C360.074 68.861 359.269 65.1549 358.731 61.1445V57.5459C359.269 53.2848 360.074 49.4176 361.148 45.9443C362.258 42.4352 363.727 39.4095 365.553 36.8672C367.379 34.2891 369.599 32.3018 372.213 30.9053C374.863 29.5088 377.96 28.8105 381.505 28.8105C385.193 28.8105 388.434 29.5088 391.227 30.9053C394.055 32.3018 396.437 34.307 398.37 36.9209C400.304 39.5348 401.754 42.6501 402.721 46.2666C403.688 49.8831 404.171 53.9115 404.171 58.3516ZM389.938 59.4795V58.3516C389.938 55.7734 389.705 53.3923 389.239 51.208C388.774 48.988 388.058 47.0544 387.091 45.4072C386.124 43.7243 384.871 42.4173 383.331 41.4863C381.791 40.5553 379.929 40.0898 377.745 40.0898C375.561 40.0898 373.681 40.4479 372.105 41.1641C370.53 41.8802 369.241 42.9007 368.238 44.2256C367.236 45.5505 366.448 47.126 365.875 48.9521C365.338 50.7425 364.98 52.7298 364.801 54.9141V63.8301C365.123 66.4798 365.75 68.861 366.681 70.9736C367.612 73.0863 368.972 74.7692 370.763 76.0225C372.589 77.2757 374.952 77.9023 377.853 77.9023C380.037 77.9023 381.899 77.4189 383.438 76.4521C384.978 75.4854 386.231 74.1605 387.198 72.4775C388.165 70.7588 388.863 68.7894 389.293 66.5693C389.723 64.3493 389.938 61.986 389.938 59.4795ZM423.378 67.751L444.54 29.8848H458.773V88H444.54V50.0801L423.378 88H409.145V29.8848H423.378V67.751ZM495.512 77.9023C497.517 77.9023 499.307 77.5085 500.883 76.7207C502.458 75.9329 503.712 74.8229 504.643 73.3906C505.609 71.9583 506.129 70.2933 506.2 68.3955H519.574C519.503 72.3343 518.393 75.8613 516.244 78.9766C514.096 82.0918 511.231 84.5625 507.65 86.3887C504.105 88.179 500.131 89.0742 495.727 89.0742C491.251 89.0742 487.348 88.3223 484.018 86.8184C480.688 85.3145 477.912 83.2197 475.692 80.5342C473.508 77.8486 471.861 74.7334 470.751 71.1885C469.677 67.6436 469.14 63.848 469.14 59.8018V58.083C469.14 54.0368 469.677 50.2412 470.751 46.6963C471.861 43.1514 473.508 40.0361 475.692 37.3506C477.912 34.665 480.688 32.5703 484.018 31.0664C487.348 29.5625 491.233 28.8105 495.673 28.8105C500.364 28.8105 504.481 29.7236 508.026 31.5498C511.607 33.376 514.4 35.9541 516.405 39.2842C518.446 42.6143 519.503 46.5352 519.574 51.0469H506.2C506.129 48.9701 505.663 47.1081 504.804 45.4609C503.944 43.8138 502.727 42.4889 501.151 41.4863C499.576 40.4837 497.66 39.9824 495.404 39.9824C493.005 39.9824 491 40.4837 489.389 41.4863C487.813 42.4889 486.578 43.8675 485.683 45.6221C484.823 47.3408 484.215 49.2744 483.856 51.4229C483.534 53.5355 483.373 55.7555 483.373 58.083V59.8018C483.373 62.165 483.534 64.4209 483.856 66.5693C484.215 68.7178 484.823 70.6514 485.683 72.3701C486.578 74.0531 487.813 75.3958 489.389 76.3984C491 77.401 493.041 77.9023 495.512 77.9023ZM544.174 29.8848V88H529.994V29.8848H544.174ZM582.04 29.8848L556.42 65.5488H541.327L539.555 52.5508H550.028L564.154 29.8848H582.04ZM565.014 88L549.115 63.0781L560.932 55.666L583.866 88H565.014ZM604.706 67.751L625.868 29.8848H640.102V88H625.868V50.0801L604.706 88H590.473V29.8848H604.706V67.751Z" fill="white"/>
<path d="M314.85 57.2236V56.2031C314.85 48.612 315.655 41.7191 317.267 35.5244C318.914 29.2939 321.062 23.8333 323.712 19.1426C326.362 14.4518 329.226 10.5667 332.306 7.4873C335.421 4.37207 338.447 2.13411 341.383 0.773438L344.176 8.56152C342.135 10.1012 340.094 12.2139 338.053 14.8994C336.048 17.5492 334.221 20.8255 332.574 24.7285C330.927 28.6315 329.602 33.179 328.6 38.3711C327.633 43.5632 327.149 49.4714 327.149 56.0957V57.3311C327.149 63.9554 327.633 69.8815 328.6 75.1094C329.602 80.3014 330.927 84.849 332.574 88.752C334.221 92.6549 336.048 95.9671 338.053 98.6885C340.094 101.41 342.135 103.558 344.176 105.134L341.383 112.707C338.447 111.311 335.421 109.073 332.306 105.993C329.226 102.914 326.362 99.0286 323.712 94.3379C321.062 89.6471 318.914 84.2044 317.267 78.0098C315.655 71.7793 314.85 64.8506 314.85 57.2236ZM673.22 56.2031V57.2236C673.22 64.6715 672.378 71.4928 670.695 77.6875C669.048 83.8822 666.864 89.3428 664.143 94.0693C661.457 98.7959 658.521 102.735 655.334 105.886C652.183 109.037 649.086 111.311 646.042 112.707L643.249 105.134C645.29 103.594 647.313 101.481 649.318 98.7959C651.324 96.1104 653.15 92.7982 654.797 88.8594C656.48 84.9206 657.805 80.3372 658.771 75.1094C659.774 69.8815 660.275 63.9554 660.275 57.3311V56.0957C660.275 49.4714 659.756 43.5452 658.718 38.3174C657.715 33.0895 656.372 28.5241 654.689 24.6211C653.007 20.6823 651.162 17.3701 649.157 14.6846C647.152 11.9632 645.183 9.85059 643.249 8.34668L646.042 0.773438C649.086 2.13411 652.183 4.40788 655.334 7.59473C658.521 10.7458 661.457 14.7025 664.143 19.4648C666.864 24.1914 669.048 29.652 670.695 35.8467C672.378 42.0055 673.22 48.791 673.22 56.2031Z" fill="#2463EB"/>
</svg>
