<?xml version="1.0" standalone="no"?>
<!DOCTYPE svg PUBLIC "-//W3C//DTD SVG 20010904//EN"
 "http://www.w3.org/TR/2001/REC-SVG-20010904/DTD/svg10.dtd">
<svg version="1.0" xmlns="http://www.w3.org/2000/svg"
 width="1024.000000pt" height="1024.000000pt" viewBox="0 0 1024.000000 1024.000000"
 preserveAspectRatio="xMidYMid meet">

<g transform="translate(0.000000,1024.000000) scale(0.100000,-0.100000)"
fill="#000000" stroke="none">
<path d="M2400 6616 c-79 -42 -210 -123 -205 -127 2 -3 -4 -5 -13 -6 -9 0 -60
-20 -112 -43 -213 -95 -405 -139 -634 -147 -141 -6 -151 -7 -173 -30 l-24 -23
4 -588 c3 -561 4 -591 25 -684 92 -406 347 -753 752 -1021 116 -77 370 -205
425 -214 28 -4 54 4 135 42 55 27 96 53 93 58 -3 6 -1 7 5 3 13 -8 156 73 258
146 160 112 341 291 446 438 70 99 161 267 154 285 -3 9 -2 14 3 11 10 -6 52
104 76 199 40 155 46 272 43 814 l-3 523 -24 19 c-20 16 -40 19 -128 19 -58 0
-153 8 -212 17 -58 9 -118 17 -133 17 -14 1 -24 4 -21 9 2 4 -3 7 -13 7 -9 0
-64 16 -121 35 -58 19 -110 32 -116 28 -7 -3 -8 -2 -4 2 10 11 -172 97 -186
88 -5 -3 -7 -2 -4 4 6 10 -210 143 -234 143 -7 0 -34 -11 -59 -24z m98 -212
c12 -8 27 -12 32 -9 6 4 9 1 8 -6 -4 -15 189 -117 322 -170 171 -67 406 -119
540 -119 l60 0 0 -472 c0 -520 -5 -587 -60 -750 -98 -291 -313 -557 -625 -769
-97 -66 -295 -169 -325 -169 -31 0 -225 102 -338 178 -52 34 -99 59 -104 55
-6 -3 -8 -2 -5 4 3 5 -34 44 -83 86 -49 43 -119 113 -156 157 -37 44 -70 78
-74 75 -4 -2 -7 2 -7 9 0 7 -13 32 -30 57 -92 135 -155 284 -189 449 -23 112
-24 127 -24 603 l0 487 61 0 c248 0 646 130 895 293 46 30 71 33 102 11z"/>
<path d="M1951 5724 c-21 -26 -21 -34 -21 -510 0 -563 -7 -524 101 -524 108 0
99 -41 99 445 l0 425 327 0 327 0 28 -27 c55 -53 49 -64 -165 -280 l-194 -196
-59 62 c-66 67 -88 74 -141 41 -46 -28 -69 -66 -57 -96 12 -34 213 -233 241
-240 13 -4 33 -4 46 0 33 8 508 491 531 540 10 21 20 64 23 95 5 63 -16 148
-36 143 -7 -1 -10 2 -6 8 10 16 -44 82 -61 76 -8 -3 -13 0 -11 6 1 7 -16 21
-38 32 -38 20 -58 21 -476 24 l-437 3 -21 -27z"/>
<path d="M7259 5983 c-13 -16 -12 -17 4 -4 16 13 21 21 13 21 -2 0 -10 -8 -17
-17z"/>
<path d="M5339 5873 c-13 -16 -12 -17 4 -4 9 7 17 15 17 17 0 8 -8 3 -21 -13z"/>
<path d="M7162 5730 c0 -14 2 -19 5 -12 2 6 2 18 0 25 -3 6 -5 1 -5 -13z"/>
<path d="M4860 4236 c0 -2 8 -10 18 -17 15 -13 16 -12 3 4 -13 16 -21 21 -21
13z"/>
<path d="M6500 4236 c0 -2 8 -10 18 -17 15 -13 16 -12 3 4 -13 16 -21 21 -21
13z"/>
<path d="M5269 4123 c-13 -16 -12 -17 4 -4 9 7 17 15 17 17 0 8 -8 3 -21 -13z"/>
</g>
</svg>
