<svg width="380" height="72" viewBox="0 0 380 72" fill="none" xmlns="http://www.w3.org/2000/svg">
<path d="M380 34.4996C380 38.3405 379.63 42.089 378.889 45.7448C378.149 49.4007 377.004 52.8715 375.453 56.1571C373.926 59.4428 371.959 62.4739 369.553 65.2505H362.542C364.717 62.3119 366.545 59.1651 368.026 55.81C369.507 52.455 370.617 48.9726 371.358 45.363C372.098 41.7534 372.468 38.1091 372.468 34.4301C372.468 30.6817 372.087 26.9796 371.323 23.3237C370.583 19.6678 369.472 16.1508 367.991 12.7726C366.51 9.37124 364.671 6.20127 362.473 3.2627H369.553C371.959 6.10872 373.926 9.20927 375.453 12.5643C377.004 15.9194 378.149 19.448 378.889 23.1502C379.63 26.8292 380 30.6123 380 34.4996Z" fill="#EEFF2D"/>
<path d="M332.673 0V13.5707C332.673 14.9821 332.626 16.3589 332.534 17.7009C332.464 19.0429 332.383 20.0841 332.291 20.8246H332.742C333.552 19.4825 334.547 18.3835 335.727 17.5273C336.907 16.6481 338.226 15.9886 339.684 15.549C341.164 15.1094 342.738 14.8896 344.404 14.8896C347.342 14.8896 349.841 15.387 351.901 16.382C353.96 17.3538 355.533 18.8694 356.621 20.9287C357.732 22.988 358.287 25.6605 358.287 28.9462V54.0051H350.131V30.4733C350.131 27.4884 349.517 25.2556 348.291 23.7747C347.065 22.2707 345.167 21.5187 342.599 21.5187C340.123 21.5187 338.156 22.0393 336.699 23.0806C335.264 24.0987 334.234 25.6142 333.61 27.6273C332.985 29.6172 332.673 32.0467 332.673 34.9159V54.0051H324.516V0H332.673Z" fill="white"/>
<path d="M304.663 54.6993C301.03 54.6993 297.884 53.9936 295.223 52.5822C292.562 51.1707 290.514 49.0073 289.079 46.0918C287.645 43.1764 286.927 39.4743 286.927 34.9854C286.927 30.3114 287.714 26.4936 289.288 23.5319C290.861 20.5702 293.036 18.3836 295.813 16.9721C298.612 15.5607 301.817 14.855 305.427 14.855C307.717 14.855 309.788 15.0864 311.639 15.5491C313.514 15.9888 315.099 16.5325 316.394 17.1804L313.965 23.7054C312.553 23.127 311.107 22.6411 309.626 22.2477C308.145 21.8544 306.722 21.6577 305.357 21.6577C303.113 21.6577 301.239 22.1551 299.735 23.1501C298.254 24.1451 297.143 25.6259 296.403 27.5927C295.685 29.5594 295.327 32.0005 295.327 34.916C295.327 37.7389 295.697 40.1221 296.437 42.0658C297.178 43.9862 298.277 45.444 299.735 46.4389C301.192 47.4107 302.986 47.8966 305.114 47.8966C307.22 47.8966 309.106 47.6421 310.772 47.1331C312.438 46.624 314.011 45.9646 315.492 45.1547V52.2351C314.034 53.0681 312.472 53.6812 310.806 54.0746C309.14 54.4911 307.093 54.6993 304.663 54.6993Z" fill="white"/>
<path d="M263.535 14.855C266.959 14.855 269.898 15.5607 272.351 16.9721C274.803 18.3836 276.689 20.3851 278.008 22.9766C279.327 25.5681 279.986 28.6686 279.986 32.2782V36.6514H254.337C254.43 40.3766 255.425 43.2458 257.322 45.2589C259.243 47.2719 261.927 48.2784 265.374 48.2784C267.827 48.2784 270.025 48.047 271.969 47.5843C273.936 47.0984 275.96 46.3926 278.043 45.4671V52.0963C276.122 52.9987 274.167 53.6581 272.177 54.0746C270.187 54.4911 267.804 54.6993 265.027 54.6993C261.256 54.6993 257.935 53.9705 255.066 52.5127C252.22 51.0319 249.987 48.8337 248.368 45.9183C246.771 43.0029 245.973 39.3817 245.973 35.0548C245.973 30.7511 246.702 27.0952 248.159 24.0872C249.617 21.0792 251.665 18.7885 254.303 17.2151C256.941 15.6417 260.018 14.855 263.535 14.855ZM263.535 20.9982C260.967 20.9982 258.884 21.8312 257.288 23.4972C255.714 25.1631 254.789 27.6042 254.511 30.8205H272.004C271.98 28.9 271.657 27.1993 271.032 25.7185C270.43 24.2376 269.505 23.0807 268.255 22.2477C267.029 21.4147 265.455 20.9982 263.535 20.9982Z" fill="white"/>
<path d="M234.415 48.1045C235.479 48.1045 236.532 48.012 237.573 47.8269C238.615 47.6186 239.563 47.3757 240.419 47.098V53.276C239.517 53.6693 238.348 54.0048 236.914 54.2825C235.479 54.5601 233.987 54.699 232.437 54.699C230.262 54.699 228.306 54.3403 226.571 53.623C224.836 52.8826 223.459 51.6216 222.441 49.8399C221.423 48.0582 220.914 45.594 220.914 42.4472V21.7961H215.673V18.1518L221.295 15.2711L223.968 7.04541H229.105V15.5835H240.107V21.7961H229.105V42.3431C229.105 44.2867 229.591 45.7328 230.562 46.6815C231.534 47.6302 232.818 48.1045 234.415 48.1045Z" fill="white"/>
<path d="M198.125 34.5343C198.125 30.647 198.495 26.8523 199.236 23.1502C199.999 19.448 201.156 15.9194 202.707 12.5643C204.257 9.20927 206.212 6.10872 208.572 3.2627H215.687C212.379 7.68213 209.88 12.5759 208.19 17.944C206.524 23.3121 205.692 28.8191 205.692 34.4648C205.692 38.1439 206.062 41.7882 206.802 45.3977C207.543 49.0073 208.653 52.4781 210.134 55.81C211.615 59.1651 213.443 62.3119 215.618 65.2505H208.572C206.212 62.4739 204.257 59.4428 202.707 56.1571C201.156 52.8715 199.999 49.4007 199.236 45.7448C198.495 42.089 198.125 38.3521 198.125 34.5343Z" fill="#EEFF2D"/>
<path d="M188.185 34.7077C188.185 37.9008 187.768 40.7353 186.936 43.2111C186.103 45.6869 184.888 47.7809 183.291 49.4932C181.695 51.1823 179.774 52.478 177.53 53.3804C175.285 54.2597 172.752 54.6993 169.929 54.6993C167.291 54.6993 164.873 54.2597 162.675 53.3804C160.477 52.478 158.568 51.1823 156.948 49.4932C155.352 47.7809 154.114 45.6869 153.234 43.2111C152.355 40.7353 151.916 37.9008 151.916 34.7077C151.916 30.4734 152.644 26.887 154.102 23.9484C155.583 20.9867 157.689 18.7307 160.419 17.1804C163.149 15.6301 166.4 14.855 170.172 14.855C173.712 14.855 176.836 15.6301 179.543 17.1804C182.25 18.7307 184.367 20.9867 185.894 23.9484C187.421 26.9101 188.185 30.4965 188.185 34.7077ZM160.315 34.7077C160.315 37.5075 160.65 39.9023 161.321 41.8922C162.015 43.8821 163.08 45.4093 164.514 46.4736C165.949 47.5149 167.8 48.0355 170.068 48.0355C172.335 48.0355 174.186 47.5149 175.621 46.4736C177.055 45.4093 178.108 43.8821 178.779 41.8922C179.45 39.9023 179.786 37.5075 179.786 34.7077C179.786 31.908 179.45 29.5363 178.779 27.5927C178.108 25.6259 177.055 24.1335 175.621 23.1154C174.186 22.0742 172.324 21.5536 170.033 21.5536C166.655 21.5536 164.19 22.6873 162.64 24.9549C161.09 27.2225 160.315 30.4734 160.315 34.7077Z" fill="white"/>
<path d="M124.982 54.0053L110.37 15.584H119.013L126.926 38.1439C127.435 39.5785 127.898 41.1288 128.314 42.7948C128.731 44.4607 129.02 45.8606 129.182 46.9944H129.46C129.622 45.8143 129.934 44.4029 130.397 42.76C130.859 41.0941 131.334 39.5554 131.82 38.1439L139.733 15.584H148.34L133.729 54.0053H124.982Z" fill="white"/>
<path d="M90.0317 14.855C94.8907 14.855 98.5582 15.9309 101.034 18.0828C103.533 20.2347 104.782 23.5897 104.782 28.148V54.0052H98.9862L97.4244 48.5561H97.1467C96.0592 49.9444 94.937 51.0897 93.7801 51.9921C92.6232 52.8945 91.2811 53.5655 89.754 54.0052C88.25 54.4679 86.4105 54.6993 84.2355 54.6993C81.9448 54.6993 79.897 54.2828 78.0922 53.4499C76.2874 52.5937 74.8644 51.298 73.8232 49.5626C72.782 47.8272 72.2614 45.6291 72.2614 42.9682C72.2614 39.0115 73.7306 36.0382 76.6692 34.0483C79.6309 32.0584 84.0967 30.9593 90.0664 30.7511L96.7302 30.5081V28.4951C96.7302 25.8342 96.1055 23.9368 94.856 22.803C93.6297 21.6692 91.8943 21.1024 89.6499 21.1024C87.7294 21.1024 85.8667 21.38 84.0619 21.9353C82.2571 22.4907 80.4986 23.1732 78.7864 23.9831L76.1486 18.2216C78.0228 17.2267 80.1516 16.4168 82.5348 15.7921C84.9412 15.1673 87.4402 14.855 90.0317 14.855ZM96.6955 35.6448L91.7323 35.8184C87.66 35.9572 84.8024 36.6514 83.1595 37.9008C81.5167 39.1503 80.6953 40.8626 80.6953 43.0376C80.6953 44.9349 81.2622 46.3232 82.396 47.2025C83.5298 48.0586 85.0222 48.4867 86.8733 48.4867C89.6961 48.4867 92.0331 47.6884 93.8842 46.0918C95.7584 44.4721 96.6955 42.1005 96.6955 38.9768V35.6448Z" fill="white"/>
<path d="M63.7576 14.855C64.4055 14.855 65.1112 14.8897 65.8748 14.9591C66.6383 15.0285 67.2978 15.1211 67.8531 15.2368L67.0895 22.8724C66.6036 22.7336 66.002 22.6295 65.2847 22.5601C64.5906 22.4907 63.9658 22.4559 63.4105 22.4559C61.9528 22.4559 60.5645 22.6989 59.2456 23.1848C57.9267 23.6476 56.7582 24.3649 55.7401 25.3367C54.722 26.2854 53.9238 27.477 53.3453 28.9116C52.7668 30.3461 52.4776 32.0121 52.4776 33.9095V54.0052H44.2866V15.5838H50.6728L51.7835 22.3518H52.1653C52.9288 20.9867 53.8775 19.7372 55.0113 18.6034C56.1451 17.4696 57.4408 16.5672 58.8985 15.8962C60.3794 15.2021 61.9991 14.855 63.7576 14.855Z" fill="white"/>
<path d="M19.7139 14.855C24.2722 14.855 27.9281 16.5209 30.6815 19.8529C33.4581 23.1848 34.8464 28.1364 34.8464 34.7077C34.8464 39.0578 34.1986 42.7252 32.9028 45.7101C31.6302 48.6718 29.837 50.9162 27.5231 52.4433C25.2324 53.9473 22.5599 54.6993 19.5057 54.6993C17.5621 54.6993 15.8729 54.4448 14.4384 53.9358C13.0038 53.4267 11.7775 52.7673 10.7594 51.9574C9.74127 51.1244 8.88515 50.222 8.191 49.2502H7.70509C7.82078 50.1758 7.92491 51.2054 8.01746 52.3392C8.13315 53.4498 8.191 54.4679 8.191 55.3935V71.0466H0V15.5838H6.66386L7.80921 20.8941H8.191C8.90829 19.8066 9.77598 18.8001 10.7941 17.8745C11.8353 16.949 13.0848 16.2201 14.5425 15.688C16.0233 15.1326 17.7472 14.855 19.7139 14.855ZM17.5273 21.5188C15.2829 21.5188 13.4781 21.97 12.113 22.8724C10.7709 23.7517 9.78755 25.0822 9.16281 26.8638C8.56121 28.6455 8.23727 30.8783 8.191 33.5624V34.7077C8.191 37.5538 8.48023 39.9717 9.05869 41.9616C9.66029 43.9284 10.6437 45.4324 12.0088 46.4736C13.3971 47.4917 15.2714 48.0008 17.6315 48.0008C19.6214 48.0008 21.2642 47.457 22.5599 46.3695C23.8788 45.282 24.8622 43.7317 25.5101 41.7187C26.158 39.7056 26.4819 37.3339 26.4819 34.6036C26.4819 30.4618 25.7415 27.2456 24.2606 24.9549C22.8029 22.6642 20.5585 21.5188 17.5273 21.5188Z" fill="white"/>
</svg>
